<?xml version="1.0" encoding="UTF-8" standalone="no"?><!DOCTYPE svg PUBLIC "-//W3C//DTD SVG 1.1//EN" "http://www.w3.org/Graphics/SVG/1.1/DTD/svg11.dtd"><svg width="100%" height="100%" viewBox="0 0 36 36" version="1.1" xmlns="http://www.w3.org/2000/svg" xmlns:xlink="http://www.w3.org/1999/xlink" xml:space="preserve" style="fill-rule:evenodd;clip-rule:evenodd;stroke-linejoin:round;stroke-miterlimit:1.41421;"><path d="M17,7c-0.002,0.266 0.103,0.521 0.29,0.71l10.29,10.29l-10.29,10.29c-0.155,0.181 -0.24,0.412 -0.24,0.65c0,0.549 0.451,1 1,1c0.238,0 0.469,-0.085 0.65,-0.24l11.71,-11.7l-11.71,-11.71c-0.187,-0.183 -0.438,-0.286 -0.7,-0.286c-0.547,0 -0.998,0.449 -1,0.996Z" style="fill:#fff;fill-rule:nonzero;"/><path d="M6,7c-0.002,0.266 0.103,0.521 0.29,0.71l10.29,10.29l-10.29,10.29c-0.155,0.181 -0.24,0.412 -0.24,0.65c0,0.549 0.451,1 1,1c0.238,0 0.469,-0.085 0.65,-0.24l11.71,-11.7l-11.71,-11.71c-0.187,-0.183 -0.438,-0.286 -0.7,-0.286c-0.547,0 -0.998,0.449 -1,0.996Z" style="fill:#fff;fill-rule:nonzero;"/><rect x="0" y="0" width="36" height="36" style="fill-opacity:0;"/></svg>