<?xml version="1.0" encoding="UTF-8" standalone="no"?><!DOCTYPE svg PUBLIC "-//W3C//DTD SVG 1.1//EN" "http://www.w3.org/Graphics/SVG/1.1/DTD/svg11.dtd"><svg width="100%" height="100%" viewBox="0 0 36 36" version="1.1" xmlns="http://www.w3.org/2000/svg" xmlns:xlink="http://www.w3.org/1999/xlink" xml:space="preserve" style="fill-rule:evenodd;clip-rule:evenodd;stroke-linejoin:round;stroke-miterlimit:1.41421;"><path d="M19.41,7c0.002,0.266 -0.103,0.521 -0.29,0.71l-10.29,10.29l10.29,10.29c0.155,0.181 0.24,0.412 0.24,0.65c0,0.549 -0.451,1 -1,1c-0.238,0 -0.469,-0.085 -0.65,-0.24l-11.71,-11.7l11.71,-11.71c0.187,-0.183 0.438,-0.286 0.7,-0.286c0.547,0 0.998,0.449 1,0.996Z" style="fill:#fff;fill-rule:nonzero;"/><path d="M30.41,7c0.002,0.266 -0.103,0.521 -0.29,0.71l-10.29,10.29l10.29,10.29c0.155,0.181 0.24,0.412 0.24,0.65c0,0.549 -0.451,1 -1,1c-0.238,0 -0.469,-0.085 -0.65,-0.24l-11.71,-11.7l11.71,-11.71c0.187,-0.183 0.438,-0.286 0.7,-0.286c0.547,0 0.998,0.449 1,0.996Z" style="fill:#fff;fill-rule:nonzero;"/><path d="M0,0l0,36l36,0l0,-36l-36,0Z" style="fill-opacity:0;"/></svg>